<svg xmlns="http://www.w3.org/2000/svg" viewBox="0 0 512 512" width="512" height="512">
  <defs>
    <linearGradient id="bg" x1="0" y1="0" x2="0" y2="1">
      <stop offset="0" stop-color="#283246"/>
      <stop offset="1" stop-color="#161c28"/>
    </linearGradient>
  </defs>
  <rect width="512" height="512" rx="112" fill="url(#bg)"/>
  <g transform="translate(0,28)">
    <!-- propeller / nose dot -->
    <circle cx="256" cy="150" r="18" fill="#27c281"/>
    <!-- mast -->
    <rect x="248" y="160" width="16" height="52" rx="6" fill="#f5b301"/>
    <!-- beam -->
    <rect x="108" y="206" width="296" height="18" rx="9" fill="#f5b301"/>
    <rect x="106" y="190" width="16" height="34" rx="6" fill="#f5b301"/>
    <rect x="390" y="190" width="16" height="34" rx="6" fill="#f5b301"/>
    <!-- pivot -->
    <path d="M256 220 L214 300 L298 300 Z" fill="#f5b301"/>
    <rect x="196" y="300" width="120" height="16" rx="8" fill="#f5b301"/>
    <!-- pans -->
    <path d="M114 224 l-44 86 a48 44 0 0 0 90 0 Z" fill="#ffd34d"/>
    <path d="M398 224 l-44 86 a48 44 0 0 0 90 0 Z" fill="#ffd34d"/>
  </g>
</svg>
